<svg id="Capa_1" data-name="Capa 1" xmlns="http://www.w3.org/2000/svg" viewBox="0 0 250 48"><defs><style>.cls-1{fill:#fff;}</style></defs><path class="cls-1" d="M32.75,23v9.55H30.22V29.81a5.82,5.82,0,0,1-2.56,2.25,8.37,8.37,0,0,1-3.63.79A8.28,8.28,0,0,1,16.26,28a12.24,12.24,0,0,1-1.11-5.35,12.13,12.13,0,0,1,1.08-5.25,8.06,8.06,0,0,1,3.09-3.5A8.63,8.63,0,0,1,24,12.64a8.76,8.76,0,0,1,3.89.86,8.05,8.05,0,0,1,3,2.48,9.35,9.35,0,0,1,1.66,3.81l-2.63,1a7,7,0,0,0-1.16-2.93A5.84,5.84,0,0,0,26.61,16,5.78,5.78,0,0,0,24,15.37a5.51,5.51,0,0,0-5.31,3.45,9.22,9.22,0,0,0-.73,3.81,9.87,9.87,0,0,0,.73,3.95,5.76,5.76,0,0,0,2.07,2.62,5.38,5.38,0,0,0,3.11.92,6,6,0,0,0,3.76-1.24,5,5,0,0,0,2-3.16H24.06V23Z"/><path class="cls-1" d="M47.88,19.37a5.4,5.4,0,0,1,1.9,3.21l-2.55,1a3.37,3.37,0,0,0-1-1.84,2.87,2.87,0,0,0-2-.72,3.42,3.42,0,0,0-1.84.51,3.84,3.84,0,0,0-1.3,1.41,4.08,4.08,0,0,0-.48,2v5.18H44v2.42h-8.8V30.07h2.6V25A7.18,7.18,0,0,1,39,20.79H35.1V18.37h3.95v2.34a6,6,0,0,1,2.2-1.87,6.63,6.63,0,0,1,3-.66A5.69,5.69,0,0,1,47.88,19.37Z"/><path class="cls-1" d="M65.32,18.57V32.49H62.56v-2.4a4.64,4.64,0,0,1-2,2,6.09,6.09,0,0,1-3,.77,5.06,5.06,0,0,1-4.76-3.05,7.94,7.94,0,0,1-.68-3.36v-7.9h2.76v7.85a4.15,4.15,0,0,0,.9,2.82,3.1,3.1,0,0,0,2.49,1.05,4,4,0,0,0,2.2-.64A4.33,4.33,0,0,0,62,27.82a6.14,6.14,0,0,0,.56-2.71V18.57Z"/><path class="cls-1" d="M71.54,18.57v2a3.8,3.8,0,0,1,1.72-1.71,6,6,0,0,1,2.81-.63,6.35,6.35,0,0,1,3.47,1,6.57,6.57,0,0,1,2.39,2.64,8.34,8.34,0,0,1,.86,3.83,8,8,0,0,1-.87,3.83,6.16,6.16,0,0,1-2.4,2.5,6.71,6.71,0,0,1-3.45.88,6,6,0,0,1-2.78-.6,4,4,0,0,1-1.75-1.66v7.47H68.76V18.57ZM72.73,29a4,4,0,0,0,3.08,1.23,4,4,0,0,0,3-1.23A4.66,4.66,0,0,0,80,25.64a5.09,5.09,0,0,0-1.15-3.44,4.17,4.17,0,0,0-6.1,0,5,5,0,0,0-1.19,3.43A4.62,4.62,0,0,0,72.73,29Z"/><path class="cls-1" d="M87.86,31.92a6.5,6.5,0,0,1-2.47-2.62,8.22,8.22,0,0,1-.89-3.88,7.93,7.93,0,0,1,.88-3.8,6.1,6.1,0,0,1,2.46-2.52,7.93,7.93,0,0,1,7.34,0,6.07,6.07,0,0,1,2.45,2.52,8,8,0,0,1,.85,3.8,8.34,8.34,0,0,1-.87,3.88,6.41,6.41,0,0,1-2.46,2.62,7.61,7.61,0,0,1-7.29,0Zm6.68-3.07a5,5,0,0,0,1.16-3.43,4.7,4.7,0,0,0-1.13-3.3,4.41,4.41,0,0,0-6.13,0,4.62,4.62,0,0,0-1.15,3.3,5,5,0,0,0,1.17,3.42,3.87,3.87,0,0,0,3.05,1.34A3.81,3.81,0,0,0,94.54,28.85Z"/><path class="cls-1" d="M125.94,14.52a5.53,5.53,0,0,1,2,4.6,5.7,5.7,0,0,1-2,4.67,8.8,8.8,0,0,1-5.7,1.63h-3.8v7.07h-2.78V13l6.58,0A8.86,8.86,0,0,1,125.94,14.52Zm-2.09,7.23a3.05,3.05,0,0,0,1.27-2.63,2.92,2.92,0,0,0-1.25-2.56,6.47,6.47,0,0,0-3.65-.86l-3.8,0v6.93l3.8,0A6,6,0,0,0,123.85,21.75Z"/><path class="cls-1" d="M131.91,28A2.78,2.78,0,0,0,133,29.76a4.18,4.18,0,0,0,2.35.56,5.32,5.32,0,0,0,2.35-.45,1.37,1.37,0,0,0,.91-1.25,1.28,1.28,0,0,0-.72-1.09,7.25,7.25,0,0,0-2.43-.75,9.55,9.55,0,0,1-4.3-1.56,3.44,3.44,0,0,1-1.38-2.84,3.59,3.59,0,0,1,1.51-3.12,8.73,8.73,0,0,1,8.05-.15A3.38,3.38,0,0,1,141,21.6l-2.52.78c-.11-1.13-1.1-1.7-3-1.7a4.57,4.57,0,0,0-2.14.42,1.37,1.37,0,0,0-.78,1.28,1.34,1.34,0,0,0,.61,1.09,6.67,6.67,0,0,0,2.31.78c4,.7,5.93,2.16,5.93,4.37a3.55,3.55,0,0,1-1.6,3.12,9.19,9.19,0,0,1-8.57,0,3.82,3.82,0,0,1-1.78-2.86Z"/><path class="cls-1" d="M143.94,30.07h4V21h-4V18.57h6.74v11.5h3.88v2.42H143.94Zm3.62-16.84a1.77,1.77,0,0,1,1.35-.59,1.84,1.84,0,0,1,1.37.59,2.05,2.05,0,0,1,.56,1.44,2,2,0,0,1-.56,1.43,1.81,1.81,0,0,1-1.37.6,1.78,1.78,0,0,1-1.34-.58,2.16,2.16,0,0,1,0-2.89Z"/><path class="cls-1" d="M156.66,21.63a6,6,0,0,1,2.44-2.53,7.35,7.35,0,0,1,3.68-.9,7.26,7.26,0,0,1,4.15,1.19,6.09,6.09,0,0,1,2.43,3.3l-2.63.92a3.89,3.89,0,0,0-1.48-2,4.25,4.25,0,0,0-2.47-.72,3.94,3.94,0,0,0-3.05,1.25,4.74,4.74,0,0,0-1.15,3.31,4.91,4.91,0,0,0,1.18,3.43,3.89,3.89,0,0,0,3,1.31,4,4,0,0,0,2.5-.8,4.18,4.18,0,0,0,1.46-2.21l2.55,1.17a6.42,6.42,0,0,1-2.45,3.33,7,7,0,0,1-4.08,1.18,7.17,7.17,0,0,1-3.65-.92,6.24,6.24,0,0,1-2.46-2.6,8.38,8.38,0,0,1-.87-3.89A8,8,0,0,1,156.66,21.63Z"/><path class="cls-1" d="M174.94,31.92a6.5,6.5,0,0,1-2.47-2.62,8.22,8.22,0,0,1-.89-3.88,7.93,7.93,0,0,1,.88-3.8,6.1,6.1,0,0,1,2.46-2.52,7.93,7.93,0,0,1,7.34,0,6.07,6.07,0,0,1,2.45,2.52,8,8,0,0,1,.86,3.8,8.34,8.34,0,0,1-.88,3.88,6.41,6.41,0,0,1-2.46,2.62,7.61,7.61,0,0,1-7.29,0Zm6.68-3.07a5,5,0,0,0,1.16-3.43,4.7,4.7,0,0,0-1.13-3.3,4.41,4.41,0,0,0-6.13,0,4.62,4.62,0,0,0-1.15,3.3,5,5,0,0,0,1.17,3.42,3.87,3.87,0,0,0,3.05,1.34A3.81,3.81,0,0,0,181.62,28.85Z"/><path class="cls-1" d="M191.33,31.92a6.5,6.5,0,0,1-2.47-2.62,8.22,8.22,0,0,1-.89-3.88,7.92,7.92,0,0,1,.87-3.8,6.18,6.18,0,0,1,2.47-2.52,7.93,7.93,0,0,1,7.34,0,6,6,0,0,1,2.44,2.52,7.92,7.92,0,0,1,.86,3.8,8.34,8.34,0,0,1-.87,3.88,6.41,6.41,0,0,1-2.46,2.62,7.61,7.61,0,0,1-7.29,0ZM198,28.85a5,5,0,0,0,1.16-3.43,4.66,4.66,0,0,0-1.14-3.3A3.91,3.91,0,0,0,195,20.88a4,4,0,0,0-3.08,1.24,4.66,4.66,0,0,0-1.14,3.3,5,5,0,0,0,1.17,3.42,3.87,3.87,0,0,0,3,1.34A3.81,3.81,0,0,0,198,28.85Z"/><path class="cls-1" d="M216.65,19.37a5.4,5.4,0,0,1,1.9,3.21l-2.55,1a3.37,3.37,0,0,0-1-1.84,2.87,2.87,0,0,0-2-.72,3.36,3.36,0,0,0-1.83.51,3.78,3.78,0,0,0-1.31,1.41,4.08,4.08,0,0,0-.48,2v5.18h3.39v2.42H204V30.07h2.6V25a7.18,7.18,0,0,1,1.22-4.18h-3.9V18.37h4v2.34a5.87,5.87,0,0,1,2.2-1.87,6.55,6.55,0,0,1,2.95-.66A5.69,5.69,0,0,1,216.65,19.37Z"/><path class="cls-1" d="M223.6,18.57v2a3.8,3.8,0,0,1,1.72-1.71,5.94,5.94,0,0,1,2.81-.63,6.29,6.29,0,0,1,3.46,1,6.52,6.52,0,0,1,2.4,2.64,8.34,8.34,0,0,1,.86,3.83,8,8,0,0,1-.87,3.83,6.22,6.22,0,0,1-2.4,2.5,6.71,6.71,0,0,1-3.45.88,6,6,0,0,1-2.78-.6,3.92,3.92,0,0,1-1.75-1.66v7.47h-2.78V18.57ZM224.79,29a4,4,0,0,0,3.08,1.23,4,4,0,0,0,3-1.23,4.65,4.65,0,0,0,1.14-3.31,5.08,5.08,0,0,0-1.14-3.44,3.85,3.85,0,0,0-3-1.32,3.9,3.9,0,0,0-3.06,1.33,5,5,0,0,0-1.18,3.43A4.58,4.58,0,0,0,224.79,29Z"/><polygon class="cls-1" points="247.47 0.01 239.9 0.01 239.9 2.54 247.47 2.54 247.47 10.11 250 10.11 250 2.54 250 0.01 247.47 0.01"/><polygon class="cls-1" points="247.47 15.16 247.47 45.47 2.52 45.47 2.52 2.54 234.85 2.54 234.85 0.01 2.52 0.01 0 0.01 0 2.54 0 45.47 0 47.99 2.52 47.99 247.47 47.99 250 47.99 250 45.47 250 15.16 247.47 15.16"/></svg>